<svg width="84" height="84" viewBox="0 0 84 84" fill="none" xmlns="http://www.w3.org/2000/svg">
<path d="M33.0093 25.2656H28.1531V38.85H33.0093C36.2906 38.85 38.9812 36.1594 38.9812 32.8781V31.3031C38.9812 27.9563 36.2906 25.2656 33.0093 25.2656Z" fill="white"/>
<path d="M0 0V84H84V0H0ZM33.6 44.2969H28.1531V58.275H21.8531V19.8844H33.9937C40.1625 19.8187 45.2156 24.7406 45.2812 30.9094V32.4188C45.2812 38.9156 40.0313 44.2312 33.6 44.2969ZM63.8531 34.9781C63.8531 34.9781 59.2594 34.9781 57.225 35.8312V58.275H50.5969V32.0906C50.5969 32.0906 57.2906 28.7437 63.8531 29.5969V34.9781V34.9781Z" fill="white"/>
</svg>
