<svg width="84" height="84" viewBox="0 0 84 84" fill="none" xmlns="http://www.w3.org/2000/svg">
<path d="M1.3125 41.9409V82.9566H83.3438V0.925316H1.3125V41.9409ZM67.4166 38.6597C69.3813 39.1156 71.167 40.1432 72.5484 41.6128C73.3089 42.4045 73.9701 43.2861 74.5172 44.2378C74.5172 44.3428 70.9734 46.7381 68.8144 48.0769C68.7356 48.1294 68.4206 47.7881 68.0728 47.2697C67.6787 46.5896 67.1187 46.0204 66.445 45.6153C65.7714 45.2103 65.0061 44.9824 64.2206 44.9531C61.7334 44.7825 60.1322 46.0884 60.1453 48.2344C60.1247 48.7687 60.2471 49.2988 60.4997 49.77C61.0444 50.9053 62.0616 51.5812 65.2509 52.9594C71.1244 55.4859 73.6378 57.1528 75.1997 59.5219C76.9453 62.1469 77.3325 66.3863 76.1513 69.5231C74.8388 72.9356 71.6231 75.2522 67.0753 76.02C64.9982 76.2579 62.8995 76.2359 60.8278 75.9544C57.6661 75.4415 54.7495 73.9361 52.5 71.6559C51.7453 70.8225 50.2753 68.6503 50.3672 68.4928C50.6068 68.315 50.859 68.1549 51.1219 68.0138L54.1406 66.2813L56.4966 64.9162L56.9887 65.6447C57.8194 66.8329 58.8765 67.8454 60.0994 68.6241C62.7244 70.0022 66.3075 69.8119 68.0794 68.2172C68.6743 67.6328 69.0454 66.8583 69.1282 66.0286C69.2109 65.1988 69 64.3663 68.5322 63.6759C67.8759 62.7638 66.5634 61.9959 62.895 60.3947C58.6622 58.5703 56.8378 57.4416 55.1709 55.6434C54.1303 54.4569 53.3621 53.0569 52.92 51.5419C52.5903 49.811 52.5415 48.0383 52.7756 46.2919C53.6484 42.2034 56.7131 39.3488 61.1887 38.5022C63.2615 38.2457 65.361 38.3033 67.4166 38.6728V38.6597ZM48.1622 42.0984V45.4584H37.5112V75.7969H29.9578V45.4519H19.2806V42.1706C19.252 41.041 19.2826 39.9107 19.3725 38.7844C19.4119 38.7319 25.935 38.7056 33.81 38.7188H48.1228L48.1622 42.0984Z" fill="white"/>
</svg>
