<svg width="98" height="98" viewBox="0 0 98 98" fill="none" xmlns="http://www.w3.org/2000/svg">
<path d="M32.8802 3.42221H61.5078L31.7903 91.4722C31.4851 92.3773 30.9036 93.1638 30.1278 93.7208C29.3519 94.2779 28.4208 94.5775 27.4657 94.5774H5.18705C4.4635 94.5772 3.75037 94.4049 3.10657 94.0747C2.46277 93.7444 1.90677 93.2658 1.48449 92.6782C1.06234 92.0906 0.786237 91.4109 0.679048 90.6953C0.571859 89.9797 0.636667 89.2489 0.868105 88.5634L28.5556 6.52667C28.861 5.62165 29.4425 4.83518 30.2183 4.27801C30.9941 3.72085 31.9251 3.42104 32.8802 3.42081V3.42221Z" fill="url(#paint0_linear_3_21)"/>
<path d="M74.4801 62.4807H29.0839C28.6618 62.4799 28.2492 62.6063 27.9 62.8434C27.5508 63.0806 27.2811 63.4175 27.1262 63.8102C26.9713 64.2029 26.9384 64.6331 27.0316 65.0448C27.1249 65.4565 27.3401 65.8306 27.6491 66.1182L56.8195 93.3453C57.6688 94.1376 58.7871 94.5781 59.9486 94.578H85.6537L74.4801 62.4807Z" fill="#FEFFFF"/>
<path d="M32.8801 3.42221C31.9146 3.41859 30.9732 3.72376 30.1934 4.29316C29.4136 4.86257 28.8362 5.66637 28.5457 6.58718L0.902517 88.4888C0.655736 89.1768 0.578284 89.9142 0.67671 90.6385C0.775136 91.3628 1.04655 92.0527 1.46798 92.6499C1.88942 93.2472 2.44849 93.7341 3.09791 94.0696C3.74733 94.4051 4.46799 94.5793 5.19894 94.5774H28.0532C28.9043 94.4253 29.6999 94.05 30.3585 93.4899C31.0172 92.9298 31.5153 92.2048 31.8022 91.3892L37.3145 75.1428L57.0058 93.5085C57.8308 94.1912 58.8658 94.5686 59.9365 94.5774H85.5462L74.314 62.4801L41.5715 62.4879L61.6112 3.42221H32.8801Z" fill="url(#paint1_linear_3_21)"/>
<path d="M69.4448 6.52246C69.1399 5.61871 68.5592 4.8334 67.7843 4.2772C67.0095 3.72101 66.0797 3.42197 65.1259 3.42223H33.2214C34.1751 3.42233 35.1046 3.72152 35.8793 4.27767C36.6539 4.83383 37.2347 5.61894 37.5397 6.52246L65.2279 88.5627C65.4597 89.2483 65.5248 89.9794 65.4179 90.6952C65.311 91.4111 65.0351 92.0911 64.613 92.6791C64.191 93.2672 63.6349 93.7462 62.9909 94.0765C62.3469 94.4068 61.6335 94.579 60.9097 94.5788H92.8155C93.539 94.5783 94.252 94.4056 94.8956 94.0751C95.5392 93.7445 96.0949 93.2655 96.5167 92.6777C96.9386 92.0899 97.2145 91.4101 97.3217 90.6946C97.4288 89.979 97.3642 89.2483 97.1331 88.5627L69.4448 6.52246Z" fill="url(#paint2_linear_3_21)"/>
<defs>
<linearGradient id="paint0_linear_3_21" x1="43.3145" y1="10.1772" x2="13.5843" y2="98.0062" gradientUnits="userSpaceOnUse">
<stop stop-color="#B0B0B0"/>
<stop offset="1" stop-color="white"/>
</linearGradient>
<linearGradient id="paint1_linear_3_21" x1="52.6011" y1="51.1079" x2="45.7244" y2="53.4327" gradientUnits="userSpaceOnUse">
<stop stop-opacity="0.3"/>
<stop offset="0.071" stop-opacity="0.2"/>
<stop offset="0.321" stop-opacity="0.1"/>
<stop offset="0.623" stop-opacity="0.05"/>
<stop offset="1" stop-opacity="0"/>
</linearGradient>
<linearGradient id="paint2_linear_3_21" x1="48.819" y1="7.61522" x2="81.4539" y2="94.5598" gradientUnits="userSpaceOnUse">
<stop stop-color="white"/>
<stop offset="1" stop-color="#A9A9A9"/>
</linearGradient>
</defs>
</svg>
