<svg width="84" height="84" viewBox="0 0 84 84" fill="none" xmlns="http://www.w3.org/2000/svg">
<path d="M28.183 2.93334H52.721L27.2488 78.4048C26.9872 79.1805 26.4888 79.8547 25.8238 80.3322C25.1588 80.8097 24.3607 81.0664 23.542 81.0663H4.44602C3.82584 81.0662 3.21459 80.9185 2.66276 80.6354C2.11093 80.3524 1.63436 79.9421 1.27241 79.4385C0.910559 78.9348 0.6739 78.3522 0.582024 77.7388C0.490148 77.1255 0.545697 76.4991 0.744072 75.9115L24.4762 5.5943C24.738 4.81856 25.2364 4.14445 25.9013 3.66688C26.5663 3.18931 27.3643 2.93233 28.183 2.93213V2.93334Z" fill="url(#paint0_linear_3_21)"/>
<path d="M63.8401 53.5549H24.9291C24.5672 53.5542 24.2136 53.6625 23.9143 53.8658C23.6149 54.0691 23.3838 54.3579 23.251 54.6945C23.1183 55.031 23.09 55.3998 23.17 55.7527C23.2499 56.1056 23.4344 56.4262 23.6993 56.6727L48.7024 80.0103C49.4304 80.6893 50.3889 81.0669 51.3845 81.0668H73.4174L63.8401 53.5549Z" fill="#FEFFFF"/>
<path d="M28.183 2.93332C27.3554 2.93021 26.5485 3.19178 25.8801 3.67984C25.2117 4.16791 24.7168 4.85688 24.4678 5.64615L0.773639 75.8475C0.562112 76.4373 0.495724 77.0693 0.580089 77.6901C0.664455 78.3109 0.897092 78.9023 1.25832 79.4142C1.61956 79.9261 2.09876 80.3435 2.6554 80.6311C3.21205 80.9187 3.82976 81.0679 4.45629 81.0663H24.0456C24.7752 80.936 25.4571 80.6143 26.0216 80.1342C26.5862 79.6541 27.0132 79.0327 27.259 78.3336L31.9839 64.4081L48.8622 80.1502C49.5693 80.7353 50.4564 81.0588 51.3742 81.0663H73.3254L63.6977 53.5544L35.6328 53.561L52.8096 2.93332H28.183Z" fill="url(#paint1_linear_3_21)"/>
<path d="M59.5242 5.59067C59.2629 4.81602 58.7651 4.1429 58.1009 3.66616C57.4368 3.18942 56.6398 2.9331 55.8223 2.93332H28.4756C29.293 2.93341 30.0898 3.18986 30.7537 3.66656C31.4177 4.14326 31.9155 4.81621 32.1769 5.59067L55.9097 75.9108C56.1084 76.4986 56.1642 77.1252 56.0726 77.7387C55.9809 78.3523 55.7444 78.9352 55.3827 79.4393C55.0209 79.9433 54.5443 80.3538 53.9923 80.637C53.4403 80.9201 52.8288 81.0677 52.2084 81.0675H79.5562C80.1764 81.0671 80.7875 80.9191 81.3392 80.6357C81.8908 80.3524 82.3671 79.9418 82.7287 79.438C83.0903 78.9342 83.3268 78.3515 83.4186 77.7382C83.5105 77.1249 83.4551 76.4985 83.257 75.9108L59.5242 5.59067Z" fill="url(#paint2_linear_3_21)"/>
<defs>
<linearGradient id="paint0_linear_3_21" x1="37.1267" y1="8.72329" x2="11.6437" y2="84.0053" gradientUnits="userSpaceOnUse">
<stop stop-color="#B0B0B0"/>
<stop offset="1" stop-color="white"/>
</linearGradient>
<linearGradient id="paint1_linear_3_21" x1="45.0867" y1="43.8068" x2="39.1924" y2="45.7995" gradientUnits="userSpaceOnUse">
<stop stop-opacity="0.3"/>
<stop offset="0.071" stop-opacity="0.2"/>
<stop offset="0.321" stop-opacity="0.1"/>
<stop offset="0.623" stop-opacity="0.05"/>
<stop offset="1" stop-opacity="0"/>
</linearGradient>
<linearGradient id="paint2_linear_3_21" x1="41.8449" y1="6.52731" x2="69.8177" y2="81.0512" gradientUnits="userSpaceOnUse">
<stop stop-color="white"/>
<stop offset="1" stop-color="#A9A9A9"/>
</linearGradient>
</defs>
</svg>
