<svg width="84" height="84" viewBox="0 0 84 84" fill="none" xmlns="http://www.w3.org/2000/svg">
<path d="M77.1094 21.9844L77.3063 21.8531C76.9125 21.1313 76.3219 20.475 75.7313 20.1469L44.0344 1.90313C43.5094 1.57501 42.7875 1.44376 42 1.44376C41.2125 1.44376 40.4906 1.64063 39.9656 1.90313L8.46562 20.2125C7.35 20.8688 6.5625 22.5094 6.5625 23.7563V60.3094C6.5625 61.0313 6.69375 61.8188 7.15312 62.5406L7.02187 62.6063C7.35 63.1313 7.80938 63.5906 8.26875 63.8531L39.9 82.1625C40.425 82.4906 41.1469 82.6219 41.9344 82.6219C42.7219 82.6219 43.4437 82.425 43.9688 82.1625L75.4688 63.8531C76.5844 63.1969 77.3719 61.5563 77.3719 60.3094V23.6906C77.4375 23.1656 77.3719 22.575 77.1094 21.9844ZM42 67.9219C27.6938 67.9219 16.0781 56.3063 16.0781 42C16.0781 27.6938 27.6938 16.0781 42 16.0781C51.6469 16.0781 60.0469 21.3938 64.5094 29.2031L55.9781 34.125C53.2219 29.2031 47.9719 25.9219 42 25.9219C33.1406 25.9219 25.9219 33.1406 25.9219 42C25.9219 50.8594 33.1406 58.0781 42 58.0781C47.9719 58.0781 53.2219 54.7969 55.9781 49.9406L64.4437 54.9281C59.9812 62.6719 51.5813 67.9219 42 67.9219V67.9219ZM75.4688 40.6875H73.3688L72.7781 43.3125H75.4688V46.5938H72.1875L71.4 50.5313H68.1844L68.9719 46.5938H66.4781L65.6906 50.5313H62.5406L63.3281 46.5938H61.6875V43.3125H63.9844L64.575 40.6875H61.6875V37.4063H65.1656L65.9531 33.4688H69.1688L68.3812 37.4063H70.875L71.6625 33.4688H74.8125L74.025 37.4063H75.4688V40.6875ZM67.1344 43.3125H69.6281L70.2188 40.6875H67.725L67.1344 43.3125Z" fill="white"/>
</svg>
