<svg width="98" height="98" viewBox="0 0 98 98" fill="none" xmlns="http://www.w3.org/2000/svg">
<path d="M89.9609 25.6484L90.1906 25.4953C89.7313 24.6531 89.0422 23.8875 88.3531 23.5047L51.3734 2.22031C50.7609 1.8375 49.9188 1.68437 49 1.68437C48.0812 1.68437 47.2391 1.91406 46.6266 2.22031L9.87656 23.5812C8.575 24.3469 7.65625 26.2609 7.65625 27.7156V70.3609C7.65625 71.2031 7.80937 72.1219 8.34531 72.9641L8.19219 73.0406C8.575 73.6531 9.11094 74.1891 9.64688 74.4953L46.55 95.8562C47.1625 96.2391 48.0047 96.3922 48.9234 96.3922C49.8422 96.3922 50.6844 96.1625 51.2969 95.8562L88.0469 74.4953C89.3484 73.7297 90.2672 71.8156 90.2672 70.3609V27.6391C90.3438 27.0266 90.2672 26.3375 89.9609 25.6484ZM49 79.2422C32.3094 79.2422 18.7578 65.6906 18.7578 49C18.7578 32.3094 32.3094 18.7578 49 18.7578C60.2547 18.7578 70.0547 24.9594 75.2609 34.0703L65.3078 39.8125C62.0922 34.0703 55.9672 30.2422 49 30.2422C38.6641 30.2422 30.2422 38.6641 30.2422 49C30.2422 59.3359 38.6641 67.7578 49 67.7578C55.9672 67.7578 62.0922 63.9297 65.3078 58.2641L75.1844 64.0828C69.9781 73.1172 60.1781 79.2422 49 79.2422ZM88.0469 47.4687H85.5969L84.9078 50.5312H88.0469V54.3594H84.2188L83.3 58.9531H79.5484L80.4672 54.3594H77.5578L76.6391 58.9531H72.9641L73.8828 54.3594H71.9688V50.5312H74.6484L75.3375 47.4687H71.9688V43.6406H76.0266L76.9453 39.0469H80.6969L79.7781 43.6406H82.6875L83.6062 39.0469H87.2812L86.3625 43.6406H88.0469V47.4687ZM78.3234 50.5312H81.2328L81.9219 47.4687H79.0125L78.3234 50.5312Z" fill="white"/>
</svg>
