<svg width="84" height="84" viewBox="0 0 84 84" fill="none" xmlns="http://www.w3.org/2000/svg">
<path d="M12.3465 74.8929L5.74854 0.886963H78.251L71.6465 74.8818L41.9558 83.1131L12.3465 74.8929V74.8929Z" fill="white"/>
<path d="M42.0006 76.8221L65.9925 70.1704L71.6369 6.93805H42.0006V76.8221Z" fill="white"/>
<path d="M42.0006 33.75H54.0113L54.8408 24.4555H42.0006V15.3789H64.7607L64.5428 17.8143L62.3115 42.8266H42.0006V33.75Z" fill="#0A192F"/>
<path d="M42.0544 57.3226L42.0143 57.3344L31.9061 54.6051L31.2597 47.366H22.1497L23.4208 61.6178L42.013 66.7779L42.0544 66.7661V57.3226V57.3226Z" fill="#0A192F"/>
<path d="M53.2396 42.443L52.1463 54.598L42.0229 57.3307V66.7741L60.6303 61.6173L60.7668 60.0836L62.3457 42.443H53.2396Z" fill="#0A192F"/>
<path d="M42.0314 15.3789V24.4555H20.1074L19.9256 22.4159L19.5121 17.8143L19.2949 15.3789H42.0314V15.3789ZM42.0005 33.7513V42.8279H32.0196L31.8378 40.7883L31.4237 36.1867L31.2072 33.7513H42.0005V33.7513Z" fill="#0A192F"/>
</svg>
