<svg width="98" height="98" viewBox="0 0 98 98" fill="none" xmlns="http://www.w3.org/2000/svg">
<path d="M14.4043 87.3751L6.70667 1.03479H91.2929L83.5877 87.3621L48.9485 96.9653L14.4043 87.3751V87.3751Z" fill="white"/>
<path d="M49.0007 89.6258L76.9912 81.8654L83.5764 8.09439H49.0007V89.6258Z" fill="white"/>
<path d="M49.0007 39.375H63.0132L63.981 28.5315H49.0007V17.9421H75.5541L75.3 20.7833L72.6968 49.9644H49.0007V39.375Z" fill="#0A192F"/>
<path d="M49.0635 66.8764L49.0168 66.8902L37.2239 63.7059L36.4697 55.2603H25.8413L27.3243 71.8874L49.0152 77.9075L49.0635 77.8937V66.8764V66.8764Z" fill="#0A192F"/>
<path d="M62.1129 49.5168L60.8374 63.6977L49.0269 66.8858V77.9031L70.7354 71.8868L70.8946 70.0976L72.7367 49.5168H62.1129Z" fill="#0A192F"/>
<path d="M49.0366 17.9421V28.5315H23.4586L23.2465 26.1519L22.7642 20.7833L22.5107 17.9421H49.0366V17.9421ZM49.0006 39.3765V49.9659H37.3562L37.1441 47.5863L36.661 42.2178L36.4084 39.3765H49.0006V39.3765Z" fill="#0A192F"/>
</svg>
