<svg width="98" height="98" viewBox="0 0 98 98" fill="none" xmlns="http://www.w3.org/2000/svg">
<path d="M95.5056 44.6956L53.3067 2.49899C50.8781 0.0688987 46.9367 0.0688987 44.5043 2.49899L35.7432 11.2623L46.8586 22.3777C49.4426 21.5056 52.404 22.0906 54.4628 24.1493C55.4439 25.1313 56.1289 26.3697 56.4393 27.7227C56.7498 29.0757 56.6732 30.4887 56.2184 31.8002L66.931 42.5144C69.5226 41.6209 72.5139 42.1982 74.5826 44.2715C77.4767 47.1633 77.4767 51.8512 74.5826 54.7445C73.8949 55.4326 73.0783 55.9784 72.1796 56.3508C71.2808 56.7232 70.3175 56.9149 69.3446 56.9149C68.3718 56.9149 67.4084 56.7232 66.5097 56.3508C65.6109 55.9784 64.7943 55.4326 64.1066 54.7445C63.0733 53.7105 62.3689 52.3941 62.0822 50.9607C61.7954 49.5274 61.939 48.0412 62.4949 46.6893L52.5051 36.6987L52.5035 62.991C53.2283 63.348 53.8901 63.8207 54.4628 64.3906C57.3561 67.2823 57.3561 71.9687 54.4628 74.8666C51.5695 77.7584 46.88 77.7584 43.9898 74.8666C41.0973 71.9695 40.8599 67.2831 43.7517 64.3906C44.4668 63.6763 45.1719 63.1365 45.9375 62.7751V36.2393C45.1719 35.8779 44.4675 35.342 43.7509 34.6231C41.5605 32.4334 41.1509 29.2178 42.2748 26.5258L31.3777 15.5674L2.47224 44.5004C0.0413852 46.9328 0.0566977 50.8742 2.48756 53.3051L44.6934 95.5018C47.1227 97.9319 51.0672 97.9319 53.5004 95.5018L95.5026 53.5011C97.9334 51.0695 97.9357 47.1257 95.5056 44.6956Z" fill="white"/>
</svg>
