<svg width="84" height="84" viewBox="0 0 84 84" fill="none" xmlns="http://www.w3.org/2000/svg">
<path d="M81.8619 38.3106L45.6914 2.14201C43.6098 0.0590691 40.2314 0.0590691 38.1465 2.14201L30.637 9.65344L40.1645 19.1809C42.3793 18.4334 44.9177 18.9348 46.6823 20.6994C47.5233 21.5412 48.1104 22.6026 48.3765 23.7623C48.6426 24.922 48.577 26.1332 48.1871 27.2574L57.3694 36.4409C59.5908 35.6751 62.1547 36.1699 63.9279 37.947C66.4085 40.4257 66.4085 44.4439 63.9279 46.9238C63.3384 47.5136 62.6385 47.9815 61.8681 48.3007C61.0978 48.6199 60.2721 48.7842 59.4382 48.7842C58.6043 48.7842 57.7786 48.6199 57.0082 48.3007C56.2379 47.9815 55.538 47.5136 54.9485 46.9238C54.0628 46.0376 53.459 44.9092 53.2132 43.6806C52.9674 42.4521 53.0905 41.1782 53.567 40.0194L45.0043 31.456L45.003 53.9923C45.6242 54.2983 46.1915 54.7035 46.6823 55.1919C49.1623 57.6706 49.1623 61.6875 46.6823 64.1714C44.2024 66.6501 40.1828 66.6501 37.7055 64.1714C35.2262 61.6882 35.0227 57.6713 37.5014 55.1919C38.1143 54.5797 38.7187 54.117 39.375 53.8073V31.0623C38.7187 30.7525 38.115 30.2932 37.5007 29.6769C35.6232 27.8001 35.2721 25.0438 36.2355 22.7364L26.8951 13.3435L2.11901 38.1432C0.0354207 40.2281 0.0485457 43.6065 2.13214 45.6901L38.3086 81.8587C40.3909 83.9416 43.7719 83.9416 45.8574 81.8587L81.8593 45.8581C83.9429 43.7738 83.9449 40.3935 81.8619 38.3106V38.3106Z" fill="white"/>
</svg>
