<svg width="98" height="98" viewBox="0 0 98 98" fill="none" xmlns="http://www.w3.org/2000/svg">
<path d="M1.53125 0.765625V96.4688H97.2344V0.765625H1.53125ZM52.1536 82.3146C50.741 85.185 48.0445 87.0707 44.92 87.981C40.1188 89.0835 35.5265 88.455 32.1103 86.4046C29.8242 85.002 28.0387 82.8429 26.8267 80.3554L34.1155 75.8918C34.179 75.9186 34.3704 76.2647 34.6262 76.7118C35.5556 78.2691 36.3572 79.3716 37.9329 80.1456C39.481 80.6739 42.8796 81.0115 44.1919 78.2875C44.9935 76.9017 44.7385 72.4473 44.7385 67.5189C44.7378 59.7746 44.7738 52.0625 44.7738 44.4062H53.7385C53.7385 52.8281 53.7844 60.8044 53.7385 69.0226C53.7576 74.0604 54.1948 78.5516 52.1536 82.3146ZM89.3431 79.782C86.227 90.441 68.8534 90.787 61.9107 83.7448C60.4438 82.0872 59.5243 81.2213 58.6492 79.308C62.3387 77.1857 62.3387 77.1857 65.9287 75.1086C67.8788 78.106 69.6818 79.7544 72.9258 80.4289C77.3266 80.9664 81.7542 79.4543 80.7612 74.7801C79.7406 70.9627 71.7498 70.034 66.3115 65.9517C60.7906 62.2438 59.4967 53.2339 64.0338 48.0858C65.5459 46.1817 68.1245 44.7607 70.8303 44.0778L73.6539 43.7126C79.0753 43.6031 82.4639 45.0348 84.9515 47.8125C85.6436 48.5138 86.2086 49.2703 87.2652 50.9095C84.3772 52.75 84.3864 52.7324 80.2497 55.4106C79.3662 53.5072 77.9 52.3129 76.3504 51.7938C73.9448 51.0649 70.9114 51.8573 70.2821 54.3992C70.0639 55.1824 70.109 55.9113 70.4559 57.2052C71.4305 59.4278 74.7013 60.394 77.6351 61.7423C86.0807 65.1677 88.9327 68.8404 89.634 73.2121C90.3093 76.9759 89.4709 79.4175 89.3431 79.782Z" fill="white"/>
</svg>
