<svg width="84" height="84" viewBox="0 0 84 84" fill="none" xmlns="http://www.w3.org/2000/svg">
<path d="M73.9449 19.9067L44.9761 3.10342C43.1511 2.06392 40.7603 2.06392 38.9209 3.10342L9.72562 19.9067C7.84284 20.9902 6.5625 23.0265 6.5625 25.2046V58.7665C6.5625 60.9446 7.86975 62.9816 9.75319 64.071L17.4503 68.46C21.1431 70.2791 22.1662 70.2791 23.8462 70.2791C29.3153 70.2791 32.1556 66.9723 32.1556 61.2045V28.0704C32.1563 27.6025 32.4483 26.9063 31.9882 26.9063H28.2988C27.8316 26.9063 26.9062 27.6025 26.9062 28.0698V61.2039C26.9062 63.7606 24.5333 66.3049 20.2112 64.1439L12.2561 59.5416C11.9792 59.3906 11.8125 59.0868 11.8125 58.7665V25.2046C11.8125 24.8883 12.1163 24.5707 12.3972 24.4086L41.5203 7.63417C41.6633 7.55821 41.8227 7.51849 41.9846 7.51849C42.1465 7.51849 42.3059 7.55821 42.4489 7.63417L71.2996 24.4046C71.5759 24.5707 71.5319 24.8784 71.5319 25.2046V58.7665C71.5319 59.0868 71.5923 59.3985 71.3199 59.5527L42.3577 76.337C42.1096 76.4859 41.7867 76.4859 41.5144 76.337L34.0876 71.9079C33.8638 71.778 33.5941 71.7314 33.3788 71.8515C31.3149 73.0216 30.9317 73.1771 28.9957 73.8485C28.5187 74.0145 27.8152 74.3026 29.2635 75.1144L38.9747 80.8592C39.9018 81.3948 40.9536 81.6768 42.0243 81.6769C43.0992 81.6786 44.1554 81.3966 45.0863 80.8592L73.9456 64.071C75.8297 62.9738 76.7819 60.9446 76.7819 58.7665V25.2046C76.7812 23.0265 75.829 20.9954 73.9449 19.9067V19.9067ZM51.0083 53.4483C43.3125 53.4483 41.6181 51.3253 41.053 47.4987C40.9861 47.0866 40.637 46.5938 40.217 46.5938H36.4567C35.9914 46.5938 35.6167 47.1581 35.6167 47.6214C35.6167 52.521 38.281 58.4574 51.0083 58.4574C60.2208 58.4574 65.5036 54.8776 65.5036 48.5422C65.5036 42.2605 61.2596 40.612 52.3248 39.4295C43.2935 38.2358 42.376 37.6327 42.376 35.5169C42.376 33.7726 43.153 31.4462 49.8402 31.4462C55.8147 31.4462 58.0171 32.7285 58.9234 36.7559C59.0015 37.1346 59.3473 37.4063 59.7378 37.4063H63.5138C63.7462 37.4063 63.9673 37.3124 64.1301 37.1464C64.2882 36.9679 64.3709 36.7441 64.3506 36.5039C63.7645 29.568 59.1577 26.336 49.8396 26.336C41.5498 26.336 36.6056 29.8364 36.6056 35.7039C36.6056 42.0683 41.5255 43.827 49.4826 44.6139C59.0015 45.547 59.7417 46.9383 59.7417 48.8106C59.7417 52.0629 57.1312 53.4483 51.0083 53.4483Z" fill="white"/>
</svg>
