<svg width="98" height="98" viewBox="0 0 98 98" fill="none" xmlns="http://www.w3.org/2000/svg">
<path d="M86.2691 23.2245L52.4721 3.62064C50.3429 2.40789 47.5537 2.40789 45.4077 3.62064L11.3466 23.2245C9.14998 24.4885 7.65625 26.8642 7.65625 29.4054V68.561C7.65625 71.1021 9.18138 73.4786 11.3787 74.7495L20.3587 79.87C24.6669 81.9923 25.8605 81.9923 27.8205 81.9923C34.2012 81.9923 37.5149 78.1343 37.5149 71.4052V32.7488C37.5156 32.2029 37.8563 31.3906 37.3196 31.3906H33.0153C32.4702 31.3906 31.3906 32.2029 31.3906 32.7481V71.4045C31.3906 74.3874 28.6221 77.3557 23.5797 74.8345L14.2988 69.4652C13.9757 69.2891 13.7812 68.9346 13.7812 68.561V29.4054C13.7812 29.0363 14.1357 28.6658 14.4634 28.4767L48.4403 8.90651C48.6071 8.8179 48.7931 8.77156 48.982 8.77156C49.1709 8.77156 49.3569 8.8179 49.5237 8.90651L83.1829 28.4721C83.5052 28.6658 83.4539 29.0248 83.4539 29.4054V68.561C83.4539 68.9346 83.5243 69.2982 83.2066 69.4782L49.4173 89.0598C49.1279 89.2336 48.7512 89.2336 48.4334 89.0598L39.7689 83.8926C39.5078 83.741 39.1931 83.6866 38.942 83.8267C36.5341 85.1919 36.087 85.3733 33.8284 86.1565C33.2718 86.3502 32.451 86.6864 34.1407 87.6334L45.4705 94.3357C46.5521 94.9606 47.7792 95.2896 49.0283 95.2897C50.2823 95.2917 51.5147 94.9626 52.6007 94.3357L86.2699 74.7495C88.468 73.4694 89.5789 71.1021 89.5789 68.561V29.4054C89.5781 26.8642 88.4672 24.4946 86.2691 23.2245ZM59.5097 62.3563C50.5312 62.3563 48.5544 59.8795 47.8952 55.4152C47.8171 54.9344 47.4098 54.3594 46.9198 54.3594H42.5328C41.9899 54.3594 41.5528 55.0178 41.5528 55.5583C41.5528 61.2745 44.6612 68.2003 59.5097 68.2003C70.2576 68.2003 76.4209 64.0239 76.4209 56.6325C76.4209 49.304 71.4696 47.3807 61.0456 46.001C50.509 44.6084 49.4387 43.9048 49.4387 41.4364C49.4387 39.4014 50.3452 36.6872 58.1469 36.6872C65.1172 36.6872 67.6866 38.1832 68.7439 42.8819C68.835 43.3237 69.2385 43.6406 69.6941 43.6406H74.0995C74.3705 43.6406 74.6285 43.5311 74.8184 43.3374C75.0029 43.1292 75.0994 42.8681 75.0757 42.5879C74.392 34.496 69.0173 30.7253 58.1462 30.7253C48.4748 30.7253 42.7066 34.8091 42.7066 41.6546C42.7066 49.0796 48.4465 51.1315 57.7297 52.0495C68.835 53.1382 69.6987 54.7613 69.6987 56.9457C69.6987 60.7401 66.653 62.3563 59.5097 62.3563Z" fill="white"/>
</svg>
