<svg width="98" height="98" viewBox="0 0 98 98" fill="none" xmlns="http://www.w3.org/2000/svg">
<path fill-rule="evenodd" clip-rule="evenodd" d="M38.4696 31.8623C35.6506 31.154 32.8277 31.3814 29.8487 31.8454C29.8487 37.0555 29.8379 42.1255 29.877 47.1962C29.8785 47.4557 30.2682 47.9075 30.5209 47.9419C33.7694 48.3806 37.0004 48.4158 40.0384 46.9351C43.1812 45.4039 44.7822 42.202 44.3672 38.4428C43.9905 35.0197 41.9639 32.7404 38.4696 31.8623ZM97.2344 48.9717V2.51508C97.2344 0.910328 97.252 0.765625 95.6939 0.765625H2.66361C1.14844 0.765625 0.765625 0.911094 0.765625 2.43928V95.4696C0.765625 97.0146 0.958563 97.0169 2.45689 97.0169C33.5068 97.0177 64.6494 97.01 95.6993 97.0453C96.9036 97.0468 97.2267 96.726 97.2237 95.5454C97.1823 80.0208 97.2344 64.4947 97.2344 48.9717ZM43.1445 53.4429C38.8899 54.9604 34.4531 55.0454 29.8594 54.6894V71.9688H21.4375V70.8953C21.4375 56.4289 21.3709 41.9639 21.3303 27.4982C21.3257 26.2969 21.5164 25.7166 22.87 25.5788C29.2492 24.9265 35.5924 24.193 41.9356 25.6806C48.7542 27.2785 52.6857 31.7865 52.9843 38.0148C53.3541 45.7277 49.9647 51.0105 43.1445 53.4429ZM77.0693 63.2077C76.7447 67.6261 74.2534 70.5271 70.1672 71.9297C64.6991 73.807 59.2609 73.3714 53.9168 71.2475C53.0417 70.8992 52.8725 70.4582 53.1612 69.5662C53.6872 67.9385 54.0723 66.2648 54.478 64.7535C56.7374 65.4165 58.8857 66.2442 61.1114 66.6354C62.6833 66.9118 64.3822 66.7495 65.98 66.4991C67.4125 66.274 68.443 65.3017 68.6781 63.7643C68.917 62.2017 68.4461 60.848 67.0665 60.0166C65.9701 59.3566 64.7619 58.8842 63.6035 58.3307C61.7408 57.4402 59.7555 56.742 58.0374 55.628C51.2762 51.2433 53.4774 43.0848 57.9892 40.0123C60.4032 38.3693 63.0745 37.6404 65.9341 37.5401C69.2975 37.4222 72.5361 38.0026 75.7173 39.5484L74.0367 45.5118C72.7045 45.0402 71.4642 44.4277 70.155 44.1842C68.6015 43.8948 66.9723 43.7333 65.4043 43.8611C63.3019 44.0334 62.0707 45.4842 62.0707 47.2835C62.0707 48.3492 62.475 49.2511 63.3639 49.7679C64.6394 50.5098 65.993 51.1215 67.3344 51.7425C68.786 52.4139 70.3188 52.93 71.7161 53.6963C75.4447 55.7406 77.3856 58.9026 77.0693 63.2077Z" fill="white"/>
</svg>
