<svg width="84" height="84" viewBox="0 0 84 84" fill="none" xmlns="http://www.w3.org/2000/svg">
<path fill-rule="evenodd" clip-rule="evenodd" d="M32.9739 27.3105C30.5576 26.7035 28.138 26.8984 25.5846 27.2961C25.5846 31.7618 25.5754 36.1075 25.6088 40.4539C25.6102 40.6763 25.9442 41.0635 26.1607 41.0931C28.9452 41.4691 31.7146 41.4993 34.3186 40.2301C37.0125 38.9176 38.3847 36.1732 38.029 32.951C37.7062 30.0169 35.9691 28.0632 32.9739 27.3105V27.3105ZM83.3438 41.9757V2.15578C83.3438 0.780281 83.3588 0.65625 82.0234 0.65625H2.28309C0.984375 0.65625 0.65625 0.780938 0.65625 2.09081V81.8311C0.65625 83.1554 0.821625 83.1574 2.10591 83.1574C28.7201 83.158 55.4138 83.1515 82.028 83.1817C83.0603 83.183 83.3372 82.908 83.3346 81.8961C83.2991 68.5893 83.3438 55.2812 83.3438 41.9757V41.9757ZM36.981 45.8082C33.3342 47.1089 29.5312 47.1817 25.5938 46.8766V61.6875H18.375V60.7674C18.375 48.3676 18.3179 35.9691 18.2831 23.5699C18.2792 22.5402 18.4426 22.0428 19.6028 21.9247C25.0707 21.3655 30.5077 20.7368 35.9448 22.0119C41.7893 23.3815 45.1592 27.2455 45.4151 32.5841C45.7321 39.1952 42.8269 43.7233 36.981 45.8082V45.8082ZM66.0594 54.178C65.7812 57.9652 63.6458 60.4518 60.1433 61.654C55.4564 63.2632 50.7951 62.8897 46.2144 61.0693C45.4643 60.7707 45.3193 60.3927 45.5667 59.6282C46.0176 58.233 46.3477 56.7984 46.6955 55.503C48.6321 56.0713 50.4735 56.7807 52.3812 57.1161C53.7285 57.353 55.1847 57.2138 56.5543 56.9993C57.7822 56.8063 58.6655 55.9729 58.8669 54.6551C59.0717 53.3157 58.6681 52.1555 57.4855 51.4428C56.5458 50.8771 55.5102 50.4722 54.5173 49.9977C52.9207 49.2345 51.219 48.636 49.7464 47.6812C43.951 43.9228 45.8377 36.9298 49.705 34.2963C51.7742 32.888 54.0638 32.2632 56.5149 32.1773C59.3978 32.0762 62.1738 32.5736 64.9005 33.8986L63.46 39.0101C62.3182 38.6059 61.255 38.0809 60.1328 37.8722C58.8013 37.6241 57.4048 37.4857 56.0608 37.5952C54.2588 37.7429 53.2035 38.9865 53.2035 40.5287C53.2035 41.4422 53.55 42.2152 54.3119 42.6582C55.4052 43.2941 56.5655 43.8185 57.7152 44.3507C58.9595 44.9262 60.2733 45.3685 61.4709 46.0254C64.6669 47.7776 66.3305 50.4879 66.0594 54.178Z" fill="white"/>
</svg>
