<svg width="98" height="98" viewBox="0 0 98 98" fill="none" xmlns="http://www.w3.org/2000/svg">
<path d="M38.5108 29.4766H32.8452V45.325H38.5108C42.339 45.325 45.478 42.1859 45.478 38.3578V36.5203C45.478 32.6156 42.339 29.4766 38.5108 29.4766Z" fill="white"/>
<path d="M0 0V98H98V0H0ZM39.2 51.6797H32.8453V67.9875H25.4953V23.1984H39.6594C46.8563 23.1219 52.7516 28.8641 52.8281 36.0609V37.8219C52.8281 45.4016 46.7031 51.6031 39.2 51.6797ZM74.4953 40.8078C74.4953 40.8078 69.1359 40.8078 66.7625 41.8031V67.9875H59.0297V37.4391C59.0297 37.4391 66.8391 33.5344 74.4953 34.5297V40.8078Z" fill="white"/>
</svg>
