<svg width="98" height="98" viewBox="0 0 98 98" fill="none" xmlns="http://www.w3.org/2000/svg">
<path d="M49 57.7281C53.8204 57.7281 57.7281 53.8204 57.7281 49C57.7281 44.1796 53.8204 40.2719 49 40.2719C44.1796 40.2719 40.2719 44.1796 40.2719 49C40.2719 53.8204 44.1796 57.7281 49 57.7281Z" fill="white"/>
<path d="M82.1516 34.6063C80.4672 33.9938 78.7063 33.3813 76.8688 32.8453C77.3281 31.0078 77.711 29.1703 78.0172 27.4094C79.625 17.3031 77.8641 10.1828 72.9641 7.42657C71.5094 6.58438 69.9016 6.20157 68.0641 6.20157C62.7047 6.20157 55.8906 10.1828 49 16.8438C42.1094 10.1828 35.2953 6.20157 29.936 6.20157C28.0985 6.20157 26.4907 6.58438 25.036 7.42657C20.136 10.2594 18.375 17.3797 19.9828 27.4094C20.2891 29.1703 20.6719 31.0078 21.1313 32.8453C19.2938 33.3813 17.5328 33.9172 15.8485 34.6063C6.27815 38.2813 1.0719 43.3344 1.0719 49C1.0719 54.6656 6.35471 59.7188 15.8485 63.3938C17.5328 64.0063 19.2938 64.6188 21.1313 65.1547C20.6719 66.9922 20.2891 68.8297 19.9828 70.5906C18.375 80.6969 20.136 87.8172 25.036 90.5734C26.4907 91.4156 28.0985 91.7984 29.936 91.7984C35.3719 91.7984 42.186 87.8172 49 81.1563C55.8906 87.8172 62.7047 91.7984 68.0641 91.7984C69.9016 91.7984 71.5094 91.4156 72.9641 90.5734C77.8641 87.7406 79.625 80.6203 78.0172 70.5906C77.711 68.8297 77.3281 66.9922 76.8688 65.1547C78.7063 64.6188 80.4672 64.0828 82.1516 63.3938C91.7219 59.7188 96.9281 54.6656 96.9281 49C96.9281 43.3344 91.7219 38.2813 82.1516 34.6063ZM70.8203 11.2547C73.9594 13.0922 75.0313 18.7578 73.7297 26.7969C73.5 28.4047 73.1172 30.0891 72.6578 31.85C68.6766 30.9313 64.4656 30.3188 60.025 29.9359C57.4219 26.2609 54.7422 22.9688 52.0625 19.9828C57.7281 14.3938 63.4703 10.5656 68.1406 10.5656C69.136 10.5656 70.0547 10.7953 70.8203 11.2547ZM62.2453 56.6563C60.8672 59.1063 59.2594 61.5563 57.575 64.0063C54.7422 64.2359 51.9094 64.3125 49 64.3125C46.0141 64.3125 43.1813 64.2359 40.425 64.0063C38.7406 61.5563 37.2094 59.1063 35.8313 56.6563C34.3766 54.1297 32.9985 51.5266 31.7735 49C32.9985 46.4734 34.3766 43.8703 35.8313 41.3438C37.2094 38.8938 38.8172 36.4438 40.5016 33.9938C43.3344 33.7641 46.1672 33.6875 49.0766 33.6875C52.0625 33.6875 54.8953 33.7641 57.6516 33.9938C59.336 36.4438 60.8672 38.8938 62.2453 41.3438C63.7 43.8703 65.0781 46.4734 66.3031 49C65.0016 51.5266 63.7 54.0531 62.2453 56.6563ZM68.6 54.1297C69.7485 56.8094 70.6672 59.4125 71.5094 62.0156C68.9063 62.6281 66.15 63.0875 63.2406 63.4703C64.1594 62.0156 65.1547 60.4844 65.9969 58.8766C66.9156 57.2688 67.7578 55.6609 68.6 54.1297ZM49 74.8781C47.1625 72.8875 45.4016 70.7438 43.7172 68.5234C45.4781 68.6 47.2391 68.6766 49 68.6766C50.761 68.6766 52.5219 68.6 54.2828 68.5234C52.5985 70.7438 50.8375 72.8875 49 74.8781ZM34.7594 63.3938C31.85 63.0109 29.0938 62.5516 26.4906 61.9391C27.3328 59.4125 28.2516 56.7328 29.4 54.0531C30.2422 55.5844 31.0844 57.1922 32.0031 58.7234C32.9219 60.4078 33.8406 61.8625 34.7594 63.3938ZM29.4 43.8703C28.2516 41.1906 27.3328 38.5875 26.4906 35.9844C29.0938 35.3719 31.85 34.9125 34.7594 34.5297C33.8406 35.9844 32.8453 37.5156 32.0031 39.1234C31.0844 40.7313 30.2422 42.3391 29.4 43.8703ZM49 23.1219C50.8375 25.1125 52.5985 27.2563 54.2828 29.4766C52.5219 29.4 50.761 29.3234 49 29.3234C47.2391 29.3234 45.4781 29.4 43.7172 29.4766C45.4016 27.2563 47.1625 25.1125 49 23.1219ZM65.9969 39.2L63.2406 34.6063C66.15 34.9891 68.9063 35.4484 71.5094 36.0609C70.6672 38.5875 69.7485 41.2672 68.6 43.9469C67.7578 42.3391 66.9156 40.7313 65.9969 39.2ZM24.2703 26.7969C22.9688 18.7578 24.0406 13.0922 27.1797 11.2547C27.9453 10.7953 28.8641 10.5656 29.8594 10.5656C34.4531 10.5656 40.1953 14.3172 45.9375 19.9828C43.2578 22.8922 40.5781 26.2609 37.975 29.9359C33.5344 30.3188 29.3235 31.0078 25.3422 31.85C24.8828 30.0891 24.5766 28.4047 24.2703 26.7969ZM5.3594 49C5.3594 45.4016 9.72346 41.5734 17.3797 38.7406C18.911 38.1281 20.5953 37.5922 22.2797 37.1328C23.5047 40.9609 25.036 45.0188 26.8735 49.0766C25.036 53.1344 23.4282 57.1156 22.2797 60.9438C11.7141 57.8813 5.3594 53.2875 5.3594 49ZM27.1797 86.7453C24.0406 84.9078 22.9688 79.2422 24.2703 71.2031C24.5 69.5953 24.8828 67.9109 25.3422 66.15C29.3235 67.0688 33.5344 67.6813 37.975 68.0641C40.5781 71.7391 43.2578 75.0313 45.9375 78.0172C40.2719 83.6063 34.5297 87.4344 29.8594 87.4344C28.8641 87.4344 27.9453 87.2047 27.1797 86.7453ZM73.7297 71.2031C75.0313 79.2422 73.9594 84.9078 70.8203 86.7453C70.0547 87.2047 69.136 87.4344 68.1406 87.4344C63.5469 87.4344 57.8047 83.6828 52.0625 78.0172C54.7422 75.1078 57.4219 71.7391 60.025 68.0641C64.4656 67.6813 68.6766 66.9922 72.6578 66.15C73.1172 67.9109 73.4235 69.5953 73.7297 71.2031ZM80.6203 59.2594C79.0891 59.8719 77.4047 60.4078 75.7203 60.8672C74.4953 57.0391 72.9641 52.9813 71.1266 48.9234C72.9641 44.8656 74.5719 40.8844 75.7203 37.0563C86.286 40.1188 92.6406 44.7125 92.6406 49C92.6406 52.5984 88.2 56.4266 80.6203 59.2594Z" fill="white"/>
</svg>
