<svg width="84" height="84" viewBox="0 0 84 84" fill="none" xmlns="http://www.w3.org/2000/svg">
<path d="M41.9999 49.4812C46.1317 49.4812 49.4812 46.1318 49.4812 42C49.4812 37.8682 46.1317 34.5187 41.9999 34.5187C37.8681 34.5187 34.5187 37.8682 34.5187 42C34.5187 46.1318 37.8681 49.4812 41.9999 49.4812Z" fill="white"/>
<path d="M70.4156 29.6625C68.9718 29.1375 67.4625 28.6125 65.8875 28.1531C66.2812 26.5781 66.6093 25.0031 66.8718 23.4937C68.25 14.8312 66.7406 8.72811 62.5406 6.36561C61.2937 5.64374 59.9156 5.31561 58.3406 5.31561C53.7468 5.31561 47.9062 8.72811 42 14.4375C36.0937 8.72811 30.2531 5.31561 25.6593 5.31561C24.0843 5.31561 22.7062 5.64374 21.4593 6.36561C17.2593 8.79374 15.75 14.8969 17.1281 23.4937C17.3906 25.0031 17.7187 26.5781 18.1125 28.1531C16.5375 28.6125 15.0281 29.0719 13.5843 29.6625C5.3812 32.8125 0.918701 37.1437 0.918701 42C0.918701 46.8562 5.44683 51.1875 13.5843 54.3375C15.0281 54.8625 16.5375 55.3875 18.1125 55.8469C17.7187 57.4219 17.3906 58.9969 17.1281 60.5062C15.75 69.1687 17.2593 75.2719 21.4593 77.6344C22.7062 78.3562 24.0843 78.6844 25.6593 78.6844C30.3187 78.6844 36.1593 75.2719 42 69.5625C47.9062 75.2719 53.7468 78.6844 58.3406 78.6844C59.9156 78.6844 61.2937 78.3562 62.5406 77.6344C66.7406 75.2062 68.25 69.1031 66.8718 60.5062C66.6093 58.9969 66.2812 57.4219 65.8875 55.8469C67.4625 55.3875 68.9718 54.9281 70.4156 54.3375C78.6187 51.1875 83.0812 46.8562 83.0812 42C83.0812 37.1437 78.6187 32.8125 70.4156 29.6625V29.6625ZM60.7031 9.64686C63.3937 11.2219 64.3125 16.0781 63.1968 22.9687C63 24.3469 62.6718 25.7906 62.2781 27.3C58.8656 26.5125 55.2562 25.9875 51.45 25.6594C49.2187 22.5094 46.9218 19.6875 44.625 17.1281C49.4812 12.3375 54.4031 9.05624 58.4062 9.05624C59.2593 9.05624 60.0468 9.25311 60.7031 9.64686V9.64686ZM53.3531 48.5625C52.1718 50.6625 50.7937 52.7625 49.3499 54.8625C46.9218 55.0594 44.4937 55.125 42 55.125C39.4406 55.125 37.0124 55.0594 34.6499 54.8625C33.2062 52.7625 31.8937 50.6625 30.7124 48.5625C29.4656 46.3969 28.2843 44.1656 27.2343 42C28.2843 39.8344 29.4656 37.6031 30.7124 35.4375C31.8937 33.3375 33.2718 31.2375 34.7156 29.1375C37.1437 28.9406 39.5718 28.875 42.0656 28.875C44.6249 28.875 47.0531 28.9406 49.4156 29.1375C50.8593 31.2375 52.1718 33.3375 53.3531 35.4375C54.6 37.6031 55.7812 39.8344 56.8312 42C55.7156 44.1656 54.6 46.3312 53.3531 48.5625ZM58.7999 46.3969C59.7843 48.6937 60.5718 50.925 61.2937 53.1562C59.0625 53.6812 56.6999 54.075 54.2062 54.4031C54.9937 53.1562 55.8468 51.8437 56.5687 50.4656C57.3562 49.0875 58.0781 47.7094 58.7999 46.3969ZM42 64.1812C40.425 62.475 38.9156 60.6375 37.4718 58.7344C38.9812 58.8 40.4906 58.8656 42 58.8656C43.5093 58.8656 45.0187 58.8 46.5281 58.7344C45.0843 60.6375 43.575 62.475 42 64.1812ZM29.7937 54.3375C27.3 54.0094 24.9374 53.6156 22.7062 53.0906C23.4281 50.925 24.2156 48.6281 25.2 46.3312C25.9218 47.6437 26.6437 49.0219 27.4312 50.3344C28.2187 51.7781 29.0062 53.025 29.7937 54.3375V54.3375ZM25.2 37.6031C24.2156 35.3062 23.4281 33.075 22.7062 30.8437C24.9374 30.3187 27.3 29.925 29.7937 29.5969C29.0062 30.8437 28.1531 32.1562 27.4312 33.5344C26.6437 34.9125 25.9218 36.2906 25.2 37.6031V37.6031ZM42 19.8187C43.575 21.525 45.0843 23.3625 46.5281 25.2656C45.0187 25.2 43.5093 25.1344 42 25.1344C40.4906 25.1344 38.9812 25.2 37.4718 25.2656C38.9156 23.3625 40.425 21.525 42 19.8187ZM56.5687 33.6L54.2062 29.6625C56.6999 29.9906 59.0625 30.3844 61.2937 30.9094C60.5718 33.075 59.7843 35.3719 58.7999 37.6687C58.0781 36.2906 57.3562 34.9125 56.5687 33.6ZM20.8031 22.9687C19.6875 16.0781 20.6062 11.2219 23.2968 9.64686C23.9531 9.25311 24.7406 9.05624 25.5937 9.05624C29.5312 9.05624 34.4531 12.2719 39.375 17.1281C37.0781 19.6219 34.7812 22.5094 32.5499 25.6594C28.7437 25.9875 25.1343 26.5781 21.7218 27.3C21.3281 25.7906 21.0656 24.3469 20.8031 22.9687V22.9687ZM4.5937 42C4.5937 38.9156 8.33433 35.6344 14.8968 33.2062C16.2093 32.6812 17.6531 32.2219 19.0968 31.8281C20.1468 35.1094 21.4593 38.5875 23.0343 42.0656C21.4593 45.5437 20.0812 48.9562 19.0968 52.2375C10.0406 49.6125 4.5937 45.675 4.5937 42ZM23.2968 74.3531C20.6062 72.7781 19.6875 67.9219 20.8031 61.0312C21 59.6531 21.3281 58.2094 21.7218 56.7C25.1343 57.4875 28.7437 58.0125 32.5499 58.3406C34.7812 61.4906 37.0781 64.3125 39.375 66.8719C34.5187 71.6625 29.5968 74.9437 25.5937 74.9437C24.7406 74.9437 23.9531 74.7469 23.2968 74.3531ZM63.1968 61.0312C64.3125 67.9219 63.3937 72.7781 60.7031 74.3531C60.0468 74.7469 59.2593 74.9437 58.4062 74.9437C54.4687 74.9437 49.5468 71.7281 44.625 66.8719C46.9218 64.3781 49.2187 61.4906 51.45 58.3406C55.2562 58.0125 58.8656 57.4219 62.2781 56.7C62.6718 58.2094 62.9343 59.6531 63.1968 61.0312V61.0312ZM69.1031 50.7937C67.7906 51.3187 66.3468 51.7781 64.9031 52.1719C63.8531 48.8906 62.5406 45.4125 60.9656 41.9344C62.5406 38.4562 63.9187 35.0437 64.9031 31.7625C73.9593 34.3875 79.4062 38.325 79.4062 42C79.4062 45.0844 75.6 48.3656 69.1031 50.7937Z" fill="white"/>
</svg>
