<svg width="98" height="98" viewBox="0 0 98 98" fill="none" xmlns="http://www.w3.org/2000/svg">
<path fill-rule="evenodd" clip-rule="evenodd" d="M0.93335 42.9944C0.93335 43.5327 1.09183 43.8879 1.18065 44.2332C1.75946 46.4788 3.0036 48.4059 4.47972 50.1637C6.58213 52.6689 9.15693 54.6855 11.7945 56.582C14.0822 58.2266 16.4166 59.8344 18.7135 61.4667C19.1078 61.7469 19.4806 62.0692 19.9086 62.413C19.5403 62.612 19.2341 62.7874 18.9156 62.9489C15.8845 64.4863 12.9682 66.2097 10.2801 68.2976C8.66004 69.5563 7.09357 70.8938 5.98724 72.6417C4.20716 75.4531 3.57705 78.4482 4.90388 81.6463C5.29129 82.5803 5.88235 83.3873 6.71612 83.9837C6.98638 84.1766 7.28957 84.368 7.60577 84.4431C8.4158 84.6337 9.24115 84.7585 10.0611 84.9093L12.3833 84.9078C14.9512 84.6789 17.2886 83.7992 19.401 82.3414C22.7024 80.0629 24.9265 77.0081 25.8828 73.0873C26.578 70.2377 26.6063 67.385 25.7871 64.5483C25.7087 64.2855 25.6182 64.0265 25.516 63.772C25.4165 63.517 25.2994 63.269 25.1616 62.9512L30.426 59.9239L30.5048 59.9913C30.4091 60.3045 30.3073 60.6168 30.2208 60.933C29.5953 63.2177 29.1796 65.5421 29.3288 67.9132C29.4881 70.4398 30.1932 72.8048 31.6724 74.9156C32.8683 76.623 35.718 76.6865 36.9889 74.9731C37.4399 74.3644 37.8771 73.7282 38.2055 73.0491C39.0638 71.2766 39.8585 69.4728 40.6785 67.6813L40.8216 67.3536C40.7627 68.2019 40.6938 68.9468 40.6624 69.6926C40.6134 70.8571 40.6815 72.0147 41.0797 73.1226C41.4204 74.0704 41.9999 74.7786 43.0856 74.9034C43.8283 74.9884 44.4201 74.6484 44.966 74.2174C45.8117 73.5491 46.5126 72.7158 47.0263 71.7682C48.4817 69.0954 49.9762 66.4386 51.2954 63.6985C52.7225 60.7347 53.9705 57.6845 55.2958 54.6702L55.5148 54.1358C55.8279 55.3662 56.0461 56.5713 56.448 57.712C56.9151 59.0358 57.4931 60.3282 58.1225 61.5846C58.4203 62.1779 58.3858 62.563 57.9732 63.0607C56.2459 65.1432 54.5485 67.251 52.8496 69.3564C52.4737 69.8212 52.0993 70.2943 51.7862 70.8019C51.5962 71.1225 51.4713 71.4774 51.4187 71.8463C51.366 72.1859 51.4468 72.5327 51.6442 72.814C51.8416 73.0953 52.1402 73.2893 52.4775 73.3553C53.1582 73.5019 53.8562 73.5516 54.5508 73.5031C56.922 73.3285 59.0749 72.4963 60.9783 71.086C63.4443 69.2592 64.236 66.7663 63.6388 63.8118C63.4773 63.0102 63.1917 62.2308 62.9138 61.4583C62.789 61.1099 62.7805 60.8657 63.0079 60.541C64.9794 57.7258 66.6638 54.7391 68.2303 51.6835C68.2923 51.5633 68.3558 51.4431 68.4645 51.3145C68.9721 53.9559 69.7362 56.5016 71.1052 58.8115C70.4069 59.4845 69.7156 60.0947 69.09 60.7669C67.7127 62.2476 66.5183 63.8554 65.8951 65.8162C65.6271 66.6614 65.4212 67.5205 65.5406 68.4231C65.7259 69.825 66.8743 70.7361 68.2532 70.4168C71.2039 69.7339 73.7512 68.3435 75.6124 65.8805C76.865 64.2222 76.979 62.3724 76.4546 60.4346C76.3107 59.9079 76.1399 59.3895 75.9562 58.7855C76.6843 58.5596 77.394 58.2886 78.1283 58.1209C81.9403 57.2511 85.711 57.4027 89.3845 58.7793C91.529 59.5832 93.2616 60.9284 94.2891 63.0446C95.5439 65.6317 94.8503 68.0863 92.4118 69.7216C92.1844 69.874 91.924 69.9942 91.7357 70.1848C91.6754 70.2548 91.6303 70.3365 91.6032 70.4248C91.5762 70.5131 91.5679 70.6061 91.5788 70.6978C91.5948 70.792 91.8437 70.9099 91.9868 70.9084C92.7884 70.9022 93.4385 70.4819 94.0624 70.0501C95.6258 68.9683 96.7666 67.5128 97.0124 65.5965L97.0606 65.4525L97.0017 64.2046C96.9779 64.1326 97.0193 64.0614 97.0139 64.007C96.6816 61.2163 95.191 59.0519 93.0227 57.3553C90.5115 55.3914 87.5462 54.5829 84.4102 54.4551C81.8668 54.3456 79.3267 54.7366 76.9339 55.6058C76.2471 55.8546 75.5665 56.1494 74.8759 56.4273C74.7832 56.2597 74.6837 56.0989 74.6018 55.9327C73.8928 54.4811 73.0338 53.0938 72.8439 51.4293C72.7092 50.2472 72.5438 49.0666 72.8248 47.8975C73.095 46.7728 73.4472 45.6672 73.7787 44.5578C73.9495 43.9867 73.8293 43.6667 73.2841 43.4094C73.0942 43.3147 72.8915 43.2481 72.6824 43.2119C71.3425 43.0174 70.021 43.1284 68.7233 43.5059C68.2639 43.6399 67.9301 43.8971 67.8283 44.4055C67.7701 44.6972 67.6514 44.9766 67.5688 45.2645C67.2296 46.4612 66.9892 47.6808 66.441 48.8208C65.0675 51.6805 63.4995 54.4321 61.8947 57.1639C61.7209 57.4586 61.5379 57.748 61.319 58.1056C60.7555 56.9265 60.1544 55.8684 59.9722 54.6281C59.7663 53.2255 59.604 51.8252 59.9531 50.4333C60.2126 49.3951 60.5518 48.376 60.8642 47.3516C61.0119 46.8647 60.9438 46.609 60.5028 46.3525C60.28 46.2231 60.0281 46.1082 59.777 46.0707C58.4031 45.8615 56.9994 45.9763 55.6778 46.4061C55.2621 46.5408 55.0439 46.8096 54.9168 47.2383C54.5432 48.5031 54.2247 49.7985 53.7002 51.0013C51.5764 55.8707 49.3913 60.7148 47.2085 65.5582C46.7529 66.5696 46.2193 67.5457 45.7056 68.5303C45.5754 68.7799 45.3855 68.9997 45.2232 69.2339C45.0931 69.0801 45.0425 68.9744 45.0433 68.8687C45.0471 68.2463 44.9729 67.6055 45.0915 67.0037C45.4559 65.1836 45.8588 63.3715 46.2997 61.5685C46.6595 60.0786 47.0783 58.6025 47.4772 57.1225C47.6112 56.6272 47.6135 56.164 47.2575 55.7475C46.6595 55.05 45.41 54.8968 44.6689 55.4343L44.3412 55.6196L44.4048 55.0913C44.561 53.959 44.5924 52.8304 44.2815 51.7149C43.8941 50.3245 42.9018 49.5245 41.4594 49.5689C40.7872 49.5895 40.0813 49.7044 39.4588 49.9494C36.8412 50.9753 34.8283 52.7921 33.1149 54.978C32.956 55.181 32.7592 55.351 32.5353 55.4787C30.3203 56.7068 28.0985 57.9195 25.8774 59.1369L23.4052 60.4913C22.7422 59.8589 22.1396 59.2027 21.4559 58.6461C19.3681 56.9434 17.2465 55.2827 15.1441 53.5991C13.2806 52.1069 11.4752 50.5527 10.0941 48.5766C9.06658 47.1066 8.40432 45.498 8.34077 43.6804C8.26038 41.3644 8.91729 39.2482 10.0963 37.2783C11.6046 34.7578 13.6619 32.7351 15.9235 30.9029C18.3161 28.9659 20.9039 27.3213 23.5859 25.8199C27.3382 23.7198 31.1977 21.8609 35.3359 20.6336C39.579 19.3749 43.8841 18.6545 48.3248 19.1567C50.0704 19.3542 51.7655 19.7539 53.322 20.6076C54.5141 21.2606 55.4918 22.1158 55.9466 23.4526C56.3952 24.768 56.3814 26.1009 56.0706 27.4369C55.439 30.1427 53.9575 32.3729 52.0932 34.3658C49.0353 37.6328 45.3051 39.8569 41.1057 41.3261C38.6911 42.172 36.1789 42.7079 33.6294 42.9209C31.54 43.0963 29.4942 42.911 27.5158 42.1844C26.2059 41.7028 25.0651 40.9663 24.1479 39.8975C23.984 39.7061 23.7742 39.4986 23.4688 39.6778C23.1694 39.8538 23.1166 40.1387 23.2169 40.4273C23.3845 40.9066 23.5392 41.4058 23.8003 41.8345C24.4564 42.9102 25.4134 43.6904 26.4669 44.3595C28.4905 45.6466 30.7521 46.0791 33.0973 46.1794C36.6559 46.3333 40.128 45.802 43.5511 44.8473C48.4381 43.4844 52.6873 41.0773 56.0951 37.2798C58.9325 34.1178 60.9591 30.5492 61.3932 26.2403C61.6053 24.1371 61.3794 22.0768 60.3949 20.1581C59.3268 18.0795 57.6286 16.5337 55.5982 15.4687C52.6414 13.9183 49.4502 13.0156 46.1565 13.0156H42.8567C38.8678 13.0156 35.0113 14.1587 31.2628 15.5223C28.4254 16.5551 25.6431 17.774 22.942 19.123C17.0597 22.0623 11.5817 25.6063 7.08208 30.4795C4.84033 32.9073 2.94235 35.5863 1.85057 38.7406C1.52105 39.6824 1.23718 40.6395 0.999959 41.6087M22.3142 69.1811C22.0592 72.595 20.5119 75.3628 17.9831 77.6045C16.5605 78.8647 14.929 79.7621 13.0287 80.0775C12.3396 80.1916 11.6345 80.2191 10.9661 79.9336C10.0129 79.5262 9.79929 78.6802 9.78091 77.7791C9.75258 76.3428 10.2556 75.0443 10.9454 73.8086C11.8458 72.1977 13.1657 70.9696 14.5753 69.8227C16.7956 68.0151 19.2042 66.4854 21.6711 65.0414L21.8571 64.9648C22.2384 66.3736 22.4198 67.7647 22.3142 69.1811ZM41.5758 54.3441C41.3959 55.4343 41.1708 56.5253 40.8523 57.5819C39.7513 61.2393 38.3372 64.7834 36.8082 68.28C36.5257 68.9269 36.1146 69.5172 35.757 70.1305C35.6962 70.2248 35.6234 70.3107 35.5404 70.3862C35.0978 70.8234 34.6783 70.8004 34.4547 70.2285C34.1944 69.5639 34.0344 68.8527 33.8966 68.1491C33.8039 67.6767 33.8261 67.1805 33.797 66.6967C33.8269 63.2559 34.8766 60.1291 36.6574 57.2182C37.3916 56.0177 38.191 54.8739 39.4121 54.1144C39.792 53.8782 40.203 53.6962 40.6333 53.5738C41.2841 53.3909 41.6837 53.6918 41.5758 54.3441ZM54.717 71.0868L59.4401 65.572C59.6369 67.62 56.1556 71.7084 54.717 71.0868ZM69.8021 67.3758C69.4683 67.5672 69.1046 67.705 68.7624 67.8819C68.4492 68.0442 68.3459 67.8803 68.3367 67.6108C68.3321 67.4243 68.3561 67.2381 68.4079 67.0588C69.0456 64.8094 70.2194 62.8892 71.9657 61.3273L72.0882 61.2645C72.9189 63.5882 71.9588 66.14 69.8021 67.3758Z" fill="white"/>
</svg>
