<svg width="84" height="84" viewBox="0 0 84 84" fill="none" xmlns="http://www.w3.org/2000/svg">
<path fill-rule="evenodd" clip-rule="evenodd" d="M0.799927 36.8524C0.799927 37.3137 0.935771 37.6182 1.0119 37.9142C1.50802 39.839 2.57443 41.4907 3.83968 42.9975C5.64174 45.1447 7.84871 46.8733 10.1095 48.4988C12.0704 49.9085 14.0713 51.2866 16.04 52.6857C16.378 52.9259 16.6976 53.2022 17.0644 53.4968C16.7488 53.6675 16.4863 53.8177 16.2133 53.9562C13.6152 55.274 11.1155 56.7512 8.81143 58.5408C7.4228 59.6197 6.08011 60.7661 5.13183 62.2643C3.60605 64.6741 3.06596 67.2413 4.20324 69.9825C4.5353 70.7831 5.04193 71.4748 5.75658 71.986C5.98824 72.1514 6.24811 72.3155 6.51915 72.3798C7.21346 72.5432 7.92089 72.6502 8.62374 72.7794L10.6141 72.7781C12.8152 72.5819 14.8187 71.8279 16.6293 70.5784C19.4591 68.6254 21.3655 66.0069 22.1851 62.6463C22.781 60.2037 22.8053 57.7585 22.1031 55.3271C22.0359 55.1019 21.9584 54.8798 21.8708 54.6617C21.7855 54.4432 21.6851 54.2305 21.567 53.9582L26.0793 51.3634L26.1469 51.4211C26.0649 51.6895 25.9776 51.9573 25.9035 52.2283C25.3673 54.1866 25.011 56.1789 25.1389 58.2113C25.2754 60.377 25.8798 62.4041 27.1477 64.2134C28.1728 65.6768 30.6153 65.7313 31.7047 64.2626C32.0912 63.7409 32.466 63.1956 32.7475 62.6135C33.4831 61.0942 34.1643 59.5481 34.8672 58.0125L34.9899 57.7316C34.9394 58.4587 34.8803 59.0973 34.8534 59.7365C34.8114 60.7346 34.8698 61.7269 35.211 62.6765C35.5031 63.4889 35.9999 64.0959 36.9304 64.2029C37.567 64.2757 38.0743 63.9844 38.5422 63.6149C39.2671 63.0421 39.8679 62.3278 40.3081 61.5156C41.5557 59.2246 42.8367 56.9474 43.9674 54.5987C45.1906 52.0583 46.2603 49.4438 47.3963 46.8602L47.584 46.4021C47.8524 47.4567 48.0394 48.4897 48.384 49.4675C48.7843 50.6021 49.2797 51.7099 49.8192 52.7868C50.0745 53.2954 50.0449 53.6255 49.6912 54.052C48.2107 55.837 46.7558 57.6437 45.2996 59.4484C44.9774 59.8467 44.6565 60.2523 44.388 60.6874C44.2252 60.9621 44.1182 61.2663 44.073 61.5825C44.0279 61.8736 44.0972 62.1709 44.2664 62.412C44.4356 62.6531 44.6915 62.8194 44.9806 62.876C45.5641 63.0016 46.1624 63.0443 46.7578 63.0026C48.7902 62.853 50.6355 62.1397 52.267 60.9308C54.3808 59.365 55.0593 57.2283 54.5475 54.6958C54.409 54.0087 54.1642 53.3407 53.926 52.6785C53.819 52.3799 53.8118 52.1706 54.0067 51.8923C55.6965 49.4793 57.1403 46.9192 58.483 44.3002C58.5361 44.1971 58.5906 44.0941 58.6838 43.9838C59.1189 46.2479 59.7738 48.4299 60.9472 50.4098C60.3487 50.9867 59.7561 51.5097 59.22 52.0859C58.0394 53.3551 57.0156 54.7332 56.4814 56.4139C56.2517 57.1384 56.0752 57.8747 56.1776 58.6484C56.3364 59.85 57.3208 60.6309 58.5027 60.3573C61.0319 59.7719 63.2152 58.5801 64.8105 56.469C65.8842 55.0476 65.982 53.4621 65.5324 51.8011C65.409 51.3496 65.2627 50.9053 65.1052 50.3875C65.7293 50.1939 66.3376 49.9616 66.967 49.8179C70.2344 49.0724 73.4665 49.2023 76.6152 50.3823C78.4533 51.0713 79.9384 52.2244 80.8191 54.0382C81.8947 56.2557 81.3001 58.3597 79.21 59.7614C79.0151 59.892 78.792 59.995 78.6305 60.1584C78.5788 60.2184 78.5401 60.2884 78.517 60.3641C78.4938 60.4398 78.4867 60.5195 78.496 60.5981C78.5098 60.6788 78.723 60.7799 78.8458 60.7786C79.5329 60.7733 80.09 60.4131 80.6249 60.0429C81.9649 59.1157 82.9427 57.8681 83.1534 56.2255L83.1947 56.1022L83.1442 55.0325C83.1239 54.9708 83.1593 54.9097 83.1547 54.8632C82.8699 52.4711 81.5922 50.6159 79.7337 49.1617C77.5812 47.4784 75.0395 46.7854 72.3515 46.6758C70.1715 46.582 67.9942 46.9171 65.9432 47.6621C65.3546 47.8754 64.7712 48.1281 64.1792 48.3663C64.0998 48.2226 64.0145 48.0847 63.9443 47.9423C63.3366 46.6981 62.6003 45.509 62.4375 44.0823C62.322 43.069 62.1803 42.0571 62.4211 41.055C62.6528 40.091 62.9547 39.1433 63.2388 38.1924C63.3852 37.7029 63.2821 37.4286 62.8149 37.2081C62.6521 37.1269 62.4783 37.0698 62.2991 37.0387C61.1506 36.8721 60.018 36.9672 58.9056 37.2907C58.5119 37.4056 58.2257 37.6261 58.1385 38.0618C58.0886 38.3119 57.9869 38.5514 57.916 38.7982C57.6253 39.8239 57.4192 40.8693 56.9493 41.8464C55.772 44.2975 54.428 46.6561 53.0525 48.9976C52.9035 49.2502 52.7467 49.4983 52.559 49.8048C52.076 48.7942 51.5609 47.8872 51.4047 46.8241C51.2281 45.6218 51.089 44.4216 51.3883 43.2285C51.6107 42.3386 51.9015 41.4652 52.1692 40.5871C52.2959 40.1697 52.2375 39.9505 51.8595 39.7307C51.6685 39.6198 51.4526 39.5213 51.2373 39.4892C50.0597 39.3098 48.8565 39.4082 47.7238 39.7766C47.3674 39.8921 47.1804 40.1225 47.0715 40.49C46.7512 41.5741 46.4782 42.6845 46.0287 43.7154C44.2082 47.8892 42.3353 52.0413 40.4643 56.1927C40.0739 57.0596 39.6165 57.8963 39.1761 58.7403C39.0645 58.9542 38.9018 59.1426 38.7627 59.3434C38.6511 59.2115 38.6078 59.1209 38.6085 59.0303C38.6117 58.4968 38.5481 57.9475 38.6498 57.4317C38.9621 55.8717 39.3074 54.3184 39.6854 52.773C39.9938 51.4959 40.3528 50.2307 40.6947 48.9622C40.8095 48.5376 40.8115 48.1405 40.5063 47.7835C39.9938 47.1857 38.9228 47.0544 38.2875 47.5151L38.0067 47.6739L38.0611 47.2211C38.195 46.2505 38.2219 45.2832 37.9555 44.3271C37.6234 43.1353 36.7729 42.4495 35.5365 42.4876C34.9604 42.5053 34.3553 42.6037 33.8218 42.8137C31.578 43.6931 29.8528 45.2504 28.3841 47.124C28.2479 47.298 28.0792 47.4437 27.8873 47.5532C25.9888 48.6058 24.0843 49.6453 22.1805 50.6887L20.0615 51.8497C19.4932 51.3076 18.9767 50.7452 18.3907 50.2681C16.6011 48.8086 14.7826 47.3852 12.9806 45.9421C11.3833 44.6631 9.83583 43.3309 8.65196 41.6371C7.77127 40.3771 7.20361 38.9983 7.14915 37.4404C7.08024 35.4552 7.6433 33.6413 8.65393 31.9528C9.94674 29.7924 11.7101 28.0586 13.6486 26.4882C15.6994 24.8279 17.9176 23.4183 20.2164 22.1314C23.4327 20.3313 26.7408 18.7379 30.2879 17.6859C33.9248 16.6071 37.6149 15.9895 41.4211 16.42C42.9174 16.5893 44.3703 16.9319 45.7045 17.6636C46.7263 18.2234 47.5643 18.9564 47.9541 20.1022C48.3387 21.2297 48.3269 22.3722 48.0604 23.5174C47.519 25.8366 46.2492 27.7482 44.6512 29.4564C42.0301 32.2567 38.8329 34.1631 35.2334 35.4224C33.1637 36.1474 31.0104 36.6068 28.8251 36.7894C27.0342 36.9397 25.2807 36.7808 23.5849 36.1581C22.4621 35.7453 21.4843 35.114 20.6981 34.1978C20.5576 34.0338 20.3778 33.8559 20.116 34.0095C19.8594 34.1604 19.8141 34.4046 19.9001 34.652C20.0438 35.0628 20.1764 35.4907 20.4001 35.8582C20.9626 36.7802 21.7829 37.4489 22.6859 38.0225C24.4203 39.1256 26.3589 39.4964 28.369 39.5824C31.4192 39.7143 34.3953 39.2588 37.3294 38.4405C41.5183 37.2724 45.1605 35.2091 48.0814 31.9541C50.5135 29.2438 52.2506 26.185 52.6227 22.4917C52.8044 20.6889 52.6109 18.923 51.7669 17.2784C50.8515 15.4967 49.3959 14.1717 47.6555 13.2589C45.1211 11.93 42.3858 11.1562 39.5626 11.1562H36.7342C33.3151 11.1562 30.0096 12.136 26.7966 13.3048C24.3645 14.1901 21.9797 15.2348 19.6645 16.3912C14.6225 18.9105 9.92705 21.9483 6.07027 26.1253C4.14877 28.2063 2.52193 30.5025 1.58611 33.2062C1.30367 34.0135 1.06035 34.8339 0.857021 35.6646M19.1264 59.2981C18.9078 62.2243 17.5816 64.5967 15.414 66.5182C14.1946 67.5983 12.7962 68.3675 11.1674 68.6378C10.5767 68.7356 9.97233 68.7592 9.39943 68.5145C8.58239 68.1653 8.3993 67.4402 8.38355 66.6678C8.35927 65.4366 8.79043 64.3237 9.38171 63.2645C10.1535 61.8837 11.2848 60.8311 12.493 59.848C14.3961 58.2986 16.4607 56.9874 18.5751 55.7497L18.7346 55.6841C19.0614 56.8916 19.2169 58.084 19.1264 59.2981V59.2981ZM35.6363 46.5806C35.4821 47.5151 35.2891 48.4503 35.0161 49.3559C34.0725 52.4908 32.8604 55.5286 31.5498 58.5257C31.3077 59.0802 30.9553 59.5862 30.6488 60.1118C30.5967 60.1926 30.5342 60.2663 30.4631 60.331C30.0838 60.7057 29.7241 60.6861 29.5325 60.1958C29.3094 59.6262 29.1722 59.0166 29.0541 58.4135C28.9747 58.0086 28.9937 57.5833 28.9688 57.1686C28.9944 54.2194 29.8941 51.5392 31.4205 49.0442C32.0499 48.0152 32.735 47.0347 33.7817 46.3837C34.1074 46.1813 34.4597 46.0253 34.8285 45.9204C35.3863 45.7636 35.7288 46.0215 35.6363 46.5806V46.5806ZM46.9002 60.9315L50.9486 56.2045C51.1172 57.96 48.1333 61.4644 46.9002 60.9315ZM59.8303 57.7507C59.5441 57.9147 59.2324 58.0328 58.9391 58.1844C58.6707 58.3236 58.5821 58.1831 58.5742 57.9521C58.5702 57.7922 58.5908 57.6326 58.6352 57.479C59.1819 55.5509 60.1879 53.905 61.6848 52.5663L61.7898 52.5125C62.5019 54.5042 61.6789 56.6915 59.8303 57.7507Z" fill="white"/>
</svg>
