<svg width="99" height="98" viewBox="0 0 99 98" fill="none" xmlns="http://www.w3.org/2000/svg">
<path d="M49.003 19.6015C35.9361 19.6015 27.7723 26.1323 24.5031 39.1992C29.4015 32.6677 35.12 30.2185 41.6515 31.8515C45.3809 32.781 48.046 35.4852 50.9975 38.4818C55.801 43.3566 61.361 49 73.5031 49C86.5692 49 94.7338 42.4685 98.0031 29.3985C93.1038 35.9338 87.3861 38.3831 80.8538 36.75C77.1252 35.8198 74.4632 33.1163 71.5078 30.1197C66.7074 25.245 61.1489 19.6015 49.003 19.6015ZM24.5031 49C11.4369 49 3.27227 55.5315 0.00305176 68.6015C4.90152 62.0662 10.6192 59.6169 17.1515 61.25C20.8809 62.1802 23.546 64.8837 26.4975 67.8803C31.301 72.7551 36.861 78.3985 49.003 78.3985C62.0692 78.3985 70.2338 71.8677 73.5031 58.8008C68.6038 65.3323 62.8861 67.7816 56.3538 66.1485C52.6252 65.219 49.9631 62.5148 47.0078 59.5182C42.2074 54.6434 36.6489 49 24.5031 49Z" fill="white"/>
</svg>
