<svg width="85" height="98" viewBox="0 0 85 98" fill="none" xmlns="http://www.w3.org/2000/svg">
<path d="M42.0027 19.6015C30.8025 19.6015 23.8049 26.1323 21.0027 39.1992C25.2014 32.6677 30.1029 30.2185 35.7014 31.8515C38.898 32.781 41.1824 35.4852 43.7122 38.4818C47.8295 43.3566 52.5952 49 63.0027 49C74.2022 49 81.2005 42.4685 84.0027 29.3985C79.8033 35.9338 74.9025 38.3831 69.3033 36.75C66.1074 35.8198 63.8256 33.1163 61.2925 30.1197C57.1778 25.245 52.4134 19.6015 42.0027 19.6015V19.6015ZM21.0027 49C9.80312 49 2.80487 55.5315 0.00268555 68.6015C4.20137 62.0662 9.10225 59.6169 14.7014 61.25C17.898 62.1802 20.1824 64.8837 22.7122 67.8803C26.8295 72.7551 31.5952 78.3985 42.0027 78.3985C53.2022 78.3985 60.2005 71.8677 63.0027 58.8008C58.8033 65.3323 53.9025 67.7816 48.3033 66.1485C45.1074 65.219 42.8256 62.5148 40.2925 59.5182C36.1778 54.6434 31.4134 49 21.0027 49Z" fill="white"/>
</svg>
