<svg width="98" height="98" viewBox="0 0 98 98" fill="none" xmlns="http://www.w3.org/2000/svg">
<path d="M1.53125 48.9311V96.7827H97.2344V1.07953H1.53125V48.9311ZM78.6527 45.103C80.9449 45.6349 83.0282 46.8337 84.6398 48.5483C85.5271 49.472 86.2984 50.5004 86.9367 51.6108C86.9367 51.7333 82.8023 54.5278 80.2834 56.0897C80.1916 56.1509 79.8241 55.7528 79.4183 55.148C78.9585 54.3545 78.3051 53.6905 77.5192 53.2179C76.7333 52.7453 75.8405 52.4795 74.9241 52.4453C72.0223 52.2462 70.1542 53.7698 70.1695 56.2734C70.1455 56.8968 70.2883 57.5152 70.583 58.065C71.2184 59.3895 72.4052 60.1781 76.1261 61.7859C82.9784 64.7336 85.9108 66.6783 87.733 69.4422C89.7695 72.5047 90.2213 77.4506 88.8431 81.1103C87.3119 85.0916 83.5603 87.7942 78.2545 88.69C75.8312 88.9676 73.3827 88.9418 70.9658 88.6134C67.2771 88.0151 63.8745 86.2588 61.25 83.5986C60.3695 82.6262 58.6545 80.092 58.7617 79.9083C59.0412 79.7008 59.3355 79.514 59.6422 79.3494L63.1641 77.3281L65.9127 75.7356L66.4869 76.5855C67.456 77.9717 68.6892 79.1529 70.1159 80.0614C73.1784 81.6692 77.3587 81.4472 79.4259 79.5867C80.12 78.905 80.553 78.0014 80.6495 77.0333C80.746 76.0652 80.5 75.094 79.9542 74.2886C79.1886 73.2244 77.6573 72.3286 73.3775 70.4605C68.4392 68.332 66.3108 67.0152 64.3661 64.9173C63.1521 63.533 62.2557 61.8997 61.74 60.1322C61.3553 58.1128 61.2984 56.0446 61.5716 54.0072C62.5898 49.2373 66.1653 45.9069 71.3869 44.9192C73.805 44.62 76.2545 44.6871 78.6527 45.1183V45.103ZM56.1892 49.1148V53.0348H43.7631V88.4297H34.9508V53.0272H22.4941V49.1991C22.4606 47.8812 22.4964 46.5625 22.6012 45.2484C22.6472 45.1872 30.2575 45.1566 39.445 45.1719H56.1433L56.1892 49.1148Z" fill="white"/>
</svg>
